PathFileType	4	(X/Y/Z)	SUBJ63_2_walk_RCNL2025.trc
DataRate	CameraRate	NumFrames	NumMarkers	Units	OrigDataRate	OrigDataStartFrame	OrigNumFrames
100	100	11	25	mm	100	203	270
Frame#	Time	R_Shoulder			L_Shoulder			C7			J_Notch			R_Elbow			L_Elbow			R_Wrist			L_Wrist			R_Asis			L_Asis			Sacral			Thoracic			Sternum			R_Thigh_Lateral			R_Knee_Lateral			R_Shank_Lateral			R_Ankle_Lateral			R_Heel			R_Toe			L_Thigh_Lateral			L_Knee_Lateral			L_Shank_Lateral			L_Ankle_Lateral			L_Heel			L_Toe		
		X1	Y1	Z1	X2	Y2	Z2	X3	Y3	Z3	X4	Y4	Z4	X5	Y5	Z5	X6	Y6	Z6	X7	Y7	Z7	X8	Y8	Z8	X9	Y9	Z9	X10	Y10	Z10	X11	Y11	Z11	X12	Y12	Z12	X13	Y13	Z13	X14	Y14	Z14	X15	Y15	Z15	X16	Y16	Z16	X17	Y17	Z17	X18	Y18	Z18	X19	Y19	Z19	X20	Y20	Z20	X21	Y21	Z21	X22	Y22	Z22	X23	Y23	Z23	X24	Y24	Z24	X25	Y25	Z25
203	2.02000000	1486.641968	1292.591064	185.465576	1499.015747	1287.972656	-148.071655	1414.052368	1353.573608	8.862240	1535.550049	1246.915771	17.465128	1441.884033	1017.489075	297.489014	1432.854980	995.604797	-243.748428	1521.061890	806.562378	347.418457	1504.264709	787.239288	-295.890900	1529.184937	844.336914	149.808807	1572.022339	839.669678	-97.133148	1329.074463	848.200745	-18.743771	1329.467163	1171.673340	9.635127	1580.944214	1068.995239	27.534391	1542.927002	510.883759	217.710709	1557.820801	459.147308	175.015808	1455.521973	329.863953	217.482651	1340.788208	152.945267	138.843475	1309.960693	173.437454	81.256905	1423.915405	75.363014	148.325241	1509.260376	456.536987	-169.349655	1497.569824	434.487183	-101.016899	1474.600952	242.641617	-127.041832	1429.132080	55.341133	-45.074196	1375.244629	53.733730	4.237511	1543.681274	36.496723	-36.732040
204	2.03000000	1498.408203	1293.541626	185.857468	1514.139404	1290.025024	-147.776001	1428.202515	1354.480713	8.729566	1549.625854	1248.295166	18.217192	1452.597046	1017.934937	296.804749	1452.473022	996.799316	-244.536209	1530.872742	806.783295	347.070007	1532.529358	790.236877	-292.720612	1544.090210	846.439941	148.403214	1585.321045	839.677490	-98.169983	1343.085327	849.546509	-18.148441	1343.915405	1172.366577	8.097990	1595.048340	1071.112305	28.223425	1564.451294	513.820801	215.735977	1579.780762	462.003723	172.352203	1484.436768	326.383148	215.154343	1381.823730	141.430573	136.867157	1349.432861	159.197998	79.217979	1470.869995	71.016983	146.877228	1511.990356	457.025635	-169.740204	1500.222412	434.862915	-101.356461	1475.165527	243.277115	-127.265709	1429.451294	55.977726	-44.734543	1375.946411	54.809906	4.659043	1544.074463	36.518860	-37.045704
205	2.04000000	1510.242554	1294.090088	186.214157	1529.186035	1291.637451	-147.512299	1442.338379	1354.986694	8.567062	1563.693359	1249.266113	18.948715	1463.353516	1018.026306	296.227295	1472.086670	997.575989	-245.281052	1540.703674	806.673706	346.883224	1560.694824	793.300903	-289.455399	1559.139526	847.936218	146.859711	1598.529419	839.307373	-99.311325	1357.087402	850.449036	-17.152103	1358.345215	1172.658447	6.590166	1609.194824	1072.824707	28.911451	1585.499023	516.320007	213.867706	1600.869141	464.182526	169.758011	1513.397949	321.685883	212.843674	1423.822632	129.803543	134.670212	1390.267700	144.708923	76.887054	1518.211060	67.112335	145.711578	1514.838135	457.593964	-170.115662	1503.020874	435.275330	-101.667572	1475.778198	243.982925	-127.417427	1429.857788	56.705128	-44.257706	1376.821777	56.029377	5.320346	1544.523315	36.531464	-37.385612
206	2.05000000	1522.210571	1294.209717	186.528671	1544.185669	1292.764282	-147.272079	1456.475464	1355.088379	8.378378	1577.762207	1249.801636	19.648512	1474.207397	1017.757812	295.762512	1491.722900	997.917236	-245.959015	1550.556824	806.204163	346.849258	1588.704834	796.396118	-286.125824	1574.334106	848.779724	145.254578	1611.669312	838.534668	-100.548813	1371.105591	850.927795	-15.851622	1372.750488	1172.551270	5.152042	1623.375977	1074.044434	29.599447	1605.933716	518.268555	212.059387	1621.073486	465.627777	167.254639	1542.366333	316.005707	210.559616	1466.710083	118.359261	132.322845	1432.452026	130.374466	74.321739	1565.773926	63.864201	144.844971	1517.885742	458.178436	-170.436447	1506.040039	435.697144	-101.896507	1476.431641	244.745621	-127.456612	1430.346191	57.515160	-43.605827	1377.861450	57.381790	6.284586	1545.015503	36.532070	-37.737293
207	2.06000000	1534.368164	1293.888306	186.800385	1559.163940	1293.383667	-147.042053	1470.623169	1354.791016	8.174054	1591.838135	1249.889893	20.307673	1485.204590	1017.136414	295.414124	1511.405151	997.834473	-246.549164	1560.447510	805.366211	346.962921	1616.507935	799.494843	-282.753067	1589.674927	848.949402	143.668716	1624.761719	837.354065	-101.874840	1385.165771	851.012817	-14.347814	1387.126953	1172.053467	3.824727	1637.585815	1074.703491	30.284664	1625.589966	519.550598	210.263199	1640.366455	466.305511	164.848862	1571.223267	309.642914	208.306625	1510.367920	107.408409	129.921951	1475.888306	116.573921	71.601028	1613.387085	61.481262	144.253494	1521.195679	458.715454	-170.664688	1509.354370	436.100861	-101.994492	1477.136963	245.550003	-127.345497	1430.903320	58.400669	-42.756180	1379.038208	58.855007	7.583962	1545.533203	36.517551	-38.075897
208	2.07000000	1546.760254	1293.127563	187.035217	1574.139648	1293.497437	-146.803925	1484.785645	1354.105591	7.971233	1605.926147	1249.531006	20.919540	1496.381470	1016.177979	295.184326	1531.148926	997.362183	-247.033905	1570.405090	804.170502	347.223999	1644.055664	802.576172	-279.350792	1605.161865	848.449829	142.177414	1637.825806	835.783264	-103.281044	1399.288818	850.740112	-12.732286	1401.471313	1171.179077	2.649082	1651.821411	1074.757935	30.960106	1644.292725	520.051880	208.445328	1658.719116	466.198578	162.540176	1599.781494	302.921478	206.085327	1554.632568	97.269463	127.585007	1520.356689	103.639175	68.838074	1660.861084	60.155910	143.873291	1524.806274	459.162537	-170.777908	1513.036377	436.460571	-101.937218	1477.934082	246.382843	-127.063377	1431.510376	59.357853	-41.711628	1380.318726	60.443363	9.190541	1546.055908	36.486370	-38.368858
209	2.08000000	1559.420898	1291.942139	187.245346	1589.122803	1293.128662	-146.534943	1498.961914	1353.049561	7.793311	1620.032837	1248.735718	21.480373	1507.764893	1014.905090	295.075653	1550.955933	996.550049	-247.396896	1580.470154	802.642731	347.636276	1671.299805	805.625183	-275.926926	1620.794922	847.310486	140.841370	1650.879028	833.863831	-104.756371	1413.488281	850.143188	-11.078753	1415.780640	1169.948608	1.664710	1666.083984	1074.188599	31.614565	1661.882324	519.672302	206.594589	1676.117554	465.304321	160.326355	1627.821777	296.156067	203.898117	1599.281006	88.246147	125.435829	1565.506836	91.853973	66.189316	1707.976562	60.047554	143.606476	1528.743042	459.500244	-170.782211	1517.157593	436.752625	-101.737228	1478.890015	247.234573	-126.616692	1432.149414	60.387482	-40.505096	1381.676025	62.149330	11.019808	1546.565308	36.440350	-38.586128
210	2.09000000	1572.373535	1290.358521	187.448181	1604.115112	1292.318237	-146.210526	1513.148682	1351.646851	7.668921	1634.168701	1247.523926	21.990313	1519.374268	1013.346680	295.091553	1570.809937	995.455688	-247.621765	1590.687317	800.818909	348.204803	1698.191040	808.632629	-272.486534	1636.574463	845.584045	139.700775	1663.937622	831.659668	-106.285988	1427.770874	849.246887	-9.438462	1430.055542	1168.390503	0.907133	1680.380615	1073.001953	32.233391	1678.248535	518.341858	204.721436	1692.582153	463.642456	158.205750	1655.152710	289.626617	201.755173	1644.008301	80.595741	123.585213	1610.875732	81.453407	63.836514	1754.470337	61.260643	143.333328	1533.036499	459.724762	-170.712845	1521.787964	436.959930	-101.441391	1480.088013	248.098099	-126.040100	1432.810181	61.497242	-39.200401	1383.088257	63.975193	12.964437	1547.047852	36.385193	-38.711971
211	2.10000000	1585.634644	1288.413818	187.663971	1619.110596	1291.119141	-145.807907	1527.343872	1349.927368	7.629581	1648.349243	1245.923706	22.454184	1531.222656	1011.536926	295.234009	1590.675781	994.138794	-247.692856	1601.097717	798.739655	348.931732	1724.676331	811.593414	-269.036201	1652.499512	843.343994	138.770584	1677.017700	829.252502	-107.850746	1442.138794	848.066956	-7.838090	1444.302734	1166.541870	0.404539	1694.726440	1071.229980	32.798504	1693.361694	516.032837	202.850372	1708.185059	461.269348	156.180099	1681.672119	283.558289	199.681046	1688.416992	74.496658	122.110611	1655.917603	72.609268	61.942722	1800.024414	63.820564	142.925812	1537.733765	459.848663	-170.620392	1526.989136	437.078064	-101.117516	1481.620728	248.970215	-125.391403	1433.490234	62.704056	-37.888809	1384.530273	65.922211	14.916234	1547.494995	36.329765	-38.750114
212	2.11000000	1599.217407	1286.154053	187.913147	1634.098511	1289.591064	-145.309189	1541.551392	1347.927979	7.705738	1662.593994	1243.971313	22.881201	1543.316650	1009.512146	295.501648	1610.501587	992.655457	-247.596954	1611.734863	796.445374	349.812668	1750.696533	814.502655	-265.587891	1668.561279	840.681274	138.039124	1690.135376	826.733521	-109.427177	1456.593262	846.613953	-6.279933	1458.536621	1164.445923	0.176101	1709.140991	1068.928467	33.288788	1707.291138	512.773376	201.010971	1723.063843	458.288361	154.257568	1707.406128	278.111084	197.721649	1732.024292	70.021141	121.038231	1700.034790	65.405548	60.611889	1844.262817	67.649696	142.258499	1542.896484	459.904327	-170.558655	1532.804932	437.117157	-100.840454	1483.584839	249.856033	-124.745613	1434.194580	64.032776	-36.678684	1385.973022	68.007820	16.754045	1547.904419	36.283844	-38.721790
213	2.12000000	1613.132202	1283.630005	188.214218	1649.067017	1287.797363	-144.703857	1555.784546	1345.695190	7.922646	1676.925659	1241.711670	23.283590	1555.659668	1007.309204	295.890900	1630.222778	991.054504	-247.324982	1622.625122	793.974457	350.836136	1776.185608	817.351593	-262.160133	1684.741211	837.701599	137.473984	1703.311401	824.193970	-110.986656	1471.136353	844.901123	-4.746106	1472.778931	1162.150635	0.231350	1723.644775	1066.176392	33.682747	1720.212402	508.665588	199.231476	1737.424316	454.849518	152.452972	1732.506470	273.386932	195.944321	1774.285645	67.118431	120.334938	1742.606445	59.818665	59.868168	1886.758789	72.546387	141.219925	1548.591553	459.937317	-170.580093	1539.260986	437.095612	-100.683182	1486.069580	250.768311	-124.188362	1434.934448	65.511528	-35.680988	1387.389160	70.276161	18.332552	1548.281006	36.254997	-38.660873
